<svg xmlns="http://www.w3.org/2000/svg" width="24" height="24" viewBox="0 0 24 24">
    <defs>
        <filter id="xa5jnu16za">
            <feColorMatrix in="SourceGraphic" values="0 0 0 0 0.513725 0 0 0 0 0.576471 0 0 0 0 0.666667 0 0 0 1.000000 0"/>
        </filter>
    </defs>
    <g fill="none" fill-rule="evenodd">
        <g>
            <g>
                <g>
                    <g filter="url(#xa5jnu16za)" transform="translate(-468 -1967) translate(250 1765) translate(0 184) translate(160)">
                        <g>
                            <path d="M0 0L0 24 24 24 24 0z" transform="translate(58 18)"/>
                            <path fill="#000" d="M21 6H3c-1.1 0-2 .9-2 2v8c0 1.1.9 2 2 2h18c1.1 0 2-.9 2-2V8c0-1.1-.9-2-2-2zm-10 7H8v3H6v-3H3v-2h3V8h2v3h3v2zm4.5 2c-.83 0-1.5-.67-1.5-1.5s.67-1.5 1.5-1.5 1.5.67 1.5 1.5-.67 1.5-1.5 1.5zm4-3c-.83 0-1.5-.67-1.5-1.5S18.67 9 19.5 9s1.5.67 1.5 1.5-.67 1.5-1.5 1.5z" transform="translate(58 18)"/>
                        </g>
                    </g>
                </g>
            </g>
        </g>
    </g>
</svg>
